<?xml version="1.0" standalone="no"?>
<!DOCTYPE svg PUBLIC "-//W3C//DTD SVG 20010904//EN"
 "http://www.w3.org/TR/2001/REC-SVG-20010904/DTD/svg10.dtd">
<svg version="1.0" xmlns="http://www.w3.org/2000/svg"
 width="1280.000000pt" height="744.000000pt" viewBox="0 0 1280.000000 744.000000"
 preserveAspectRatio="xMidYMid meet">
<metadata>
Created by potrace 1.15, written by Peter Selinger 2001-2017
</metadata>
<g transform="translate(0.000000,744.000000) scale(0.100000,-0.100000)"
fill="#000000" stroke="none">
<path d="M9136 7429 c-204 -30 -486 -157 -584 -264 -66 -70 -102 -176 -102
-295 0 -155 207 -350 460 -433 169 -57 400 -74 555 -42 122 25 396 120 524
182 172 83 240 158 261 290 13 76 4 113 -27 113 -26 0 -319 -95 -395 -129
l-48 -20 0 -53 c0 -67 -14 -116 -45 -162 l-24 -36 27 0 c15 0 56 7 92 14 36 8
66 13 68 11 3 -2 -261 -109 -328 -133 -8 -3 15 17 52 44 37 27 68 52 68 57 0
4 -21 7 -47 7 -77 0 -239 28 -313 53 -174 61 -328 175 -381 283 -31 63 -31
162 -1 249 15 44 17 62 9 67 -7 4 -43 8 -82 8 l-70 1 135 54 c174 71 184 74
131 35 -43 -31 -90 -79 -91 -91 0 -3 42 -14 93 -24 212 -41 450 -124 655 -229
l107 -55 90 31 c90 30 332 132 344 143 10 10 -26 33 -134 85 -235 114 -486
197 -719 239 -68 13 -194 12 -280 0z"/>
<path d="M3020 7360 c-101 -12 -186 -34 -292 -75 -118 -46 -433 -198 -419
-203 20 -7 205 51 259 81 70 38 202 98 202 91 0 -3 -34 -21 -75 -41 -42 -19
-74 -37 -73 -38 2 -1 39 4 83 12 103 18 274 12 330 -12 110 -47 233 -152 274
-234 29 -57 60 -75 119 -69 101 10 258 122 307 219 14 26 29 50 35 54 5 3 15
15 21 27 10 19 9 20 -17 14 -16 -4 -38 -9 -49 -12 -11 -2 13 12 54 31 71 34
107 41 62 13 -12 -7 -21 -15 -21 -18 0 -3 60 -1 133 3 147 10 232 0 300 -35
35 -17 46 -19 79 -9 52 16 258 120 258 131 0 14 -61 47 -119 64 -113 33 -400
15 -555 -35 -91 -29 -270 -113 -315 -148 l-24 -19 31 -51 c18 -28 32 -55 32
-59 0 -4 -21 -16 -48 -26 -26 -11 -88 -38 -138 -61 l-92 -43 46 67 c65 94 90
123 130 150 l36 24 -56 51 c-148 134 -294 180 -498 156z"/>
<path d="M7770 6569 c-156 -41 -334 -150 -377 -232 -25 -49 -42 -171 -31 -220
22 -100 108 -189 251 -261 108 -55 198 -76 322 -76 108 0 172 15 325 73 199
76 280 125 326 198 24 38 42 124 36 167 -3 22 -7 23 -40 17 -43 -8 -260 -91
-279 -107 -7 -6 -13 -31 -13 -58 0 -29 -9 -64 -24 -94 l-24 -48 36 7 c21 3 48
9 62 12 14 3 23 3 19 0 -7 -9 -212 -97 -216 -93 -2 1 18 18 45 37 l47 34 -95
13 c-118 15 -176 34 -263 84 -160 92 -216 209 -172 354 8 27 15 52 15 56 0 4
-25 8 -56 10 l-56 3 93 40 c51 22 98 42 104 44 5 2 -9 -15 -32 -37 -24 -23
-43 -45 -43 -50 0 -4 35 -15 78 -25 135 -30 232 -66 380 -139 168 -83 149 -83
342 9 l115 54 -40 25 c-62 38 -232 118 -315 148 -213 77 -372 94 -520 55z"/>
<path d="M6730 5950 c-94 -23 -198 -88 -226 -142 -9 -17 -17 -55 -18 -84 -1
-43 4 -59 29 -94 67 -94 234 -155 361 -131 76 14 228 74 272 107 40 31 62 73
62 119 0 34 -1 35 -27 29 -16 -4 -57 -19 -93 -33 -63 -26 -65 -27 -71 -68 -3
-23 -12 -49 -19 -58 -14 -16 -12 -17 20 -10 45 9 37 2 -25 -25 -47 -20 -48
-20 -31 -1 17 19 17 19 -39 26 -33 5 -87 22 -127 42 -103 52 -138 115 -115
210 8 29 6 32 -20 35 -26 3 -25 5 21 26 60 27 66 28 37 1 -12 -12 -21 -23 -19
-25 3 -2 43 -15 91 -29 48 -14 123 -43 167 -65 44 -22 85 -40 92 -40 7 0 49
18 92 38 l80 38 -37 21 c-154 91 -347 139 -457 113z"/>
<path d="M6172 5466 c-60 -30 -129 -66 -153 -81 l-42 -27 23 -18 24 -18 -29
-280 c-25 -247 -27 -292 -17 -374 6 -51 8 -118 6 -148 -27 -311 -77 -779 -89
-832 -8 -37 -33 -108 -55 -158 -23 -50 -40 -95 -38 -100 4 -10 140 33 250 79
l76 32 40 92 c22 51 45 110 51 132 7 22 27 189 46 370 55 516 58 557 45 658
-11 85 -6 196 16 363 l6 41 41 -9 c23 -4 123 -11 222 -14 151 -5 209 -3 360
16 190 23 227 32 344 86 50 23 72 38 68 48 -4 9 13 22 51 39 31 13 83 36 115
51 91 41 57 13 -53 -45 l-100 -52 0 -66 c0 -36 -4 -124 -10 -196 -9 -115 -110
-1607 -110 -1620 0 -3 -133 -5 -294 -5 -170 0 -368 -6 -468 -14 -95 -8 -279
-18 -408 -21 -129 -4 -264 -11 -300 -16 -36 -5 -155 -14 -265 -19 -110 -5
-234 -14 -275 -20 -111 -14 -1343 -13 -1471 2 -143 16 -262 14 -339 -6 -120
-32 -304 -129 -365 -193 -15 -15 -56 -71 -91 -124 -35 -53 -81 -116 -102 -140
-90 -103 -378 -497 -369 -505 6 -6 208 59 269 86 34 15 57 37 103 102 118 167
259 354 301 400 40 43 154 209 154 224 0 4 -26 4 -57 2 l-58 -5 90 43 c50 24
93 43 96 43 4 1 -10 -16 -29 -36 l-36 -38 105 -13 c69 -8 316 -15 739 -18 535
-5 657 -4 775 9 77 9 205 19 285 22 80 4 204 13 275 21 72 8 207 14 300 14 94
1 240 8 325 16 107 11 306 17 645 20 480 4 647 13 985 50 75 8 255 19 400 24
146 6 299 14 340 20 101 12 711 12 830 -1 52 -5 208 -14 345 -18 138 -5 258
-12 268 -16 10 -4 25 -22 35 -39 15 -27 18 -80 23 -436 6 -427 16 -540 49
-540 19 0 201 70 259 100 45 22 49 36 29 105 -7 25 -13 197 -17 450 -9 564 16
526 -345 537 -133 4 -324 15 -426 24 -147 13 -245 15 -475 10 -159 -3 -319
-11 -355 -17 -36 -5 -184 -14 -330 -19 -146 -4 -326 -15 -400 -24 -256 -29
-376 -38 -545 -42 -110 -2 -163 0 -150 5 11 6 70 31 130 56 61 25 117 52 127
58 14 11 22 107 62 702 26 380 53 778 61 885 20 262 19 298 -5 338 -12 19 -28
32 -40 32 -29 0 -266 -113 -249 -119 7 -2 -25 -21 -71 -43 -96 -44 -120 -44
-34 1 70 36 60 37 -96 16 -125 -17 -397 -19 -505 -4 -126 17 -244 59 -362 128
l-51 30 -110 -53z"/>
<path d="M3925 2845 c-55 -30 -113 -66 -130 -80 l-30 -24 324 -1 c327 0 456
-9 681 -48 81 -13 215 -16 905 -20 849 -4 902 -2 1130 41 105 20 153 21 1110
26 l1000 6 89 48 c49 27 107 61 129 75 l41 27 -120 3 c-65 1 -522 1 -1014 0
-864 -4 -899 -4 -1000 -25 -212 -43 -283 -45 -1110 -40 -513 3 -806 9 -845 16
-199 37 -297 44 -675 48 l-385 4 -100 -56z"/>
<path d="M11455 2399 c-60 -4 -258 -12 -440 -18 -230 -8 -366 -17 -450 -31
-66 -11 -199 -32 -295 -47 l-175 -28 -575 0 c-491 0 -601 3 -750 19 -146 15
-219 17 -440 12 -146 -4 -342 -13 -436 -22 -247 -22 -1518 -15 -1799 11 -163
14 -262 16 -700 11 -349 -5 -560 -11 -668 -22 -132 -14 -253 -15 -750 -10
-325 3 -623 10 -662 15 -38 6 -195 15 -348 20 -153 6 -282 13 -287 16 -5 3
-145 10 -312 16 -167 5 -332 14 -368 20 -39 7 -327 13 -710 15 l-645 5 -95
-51 c-52 -27 -146 -75 -207 -105 -62 -29 -113 -56 -113 -59 0 -14 45 -115 113
-256 204 -422 257 -533 257 -539 0 -18 75 -270 88 -296 8 -16 28 -50 45 -74
37 -54 59 -111 98 -254 36 -134 112 -287 142 -287 23 0 217 81 265 110 l32 20
-44 82 c-24 46 -51 108 -60 138 -60 211 -78 259 -124 333 -27 42 -55 98 -62
125 -7 26 -23 82 -36 125 -13 43 -24 83 -24 90 0 13 -221 478 -286 602 -23 44
-45 90 -49 103 l-6 22 523 0 c288 -1 555 -5 593 -10 39 -6 209 -14 379 -20
169 -6 311 -12 315 -15 4 -2 126 -9 272 -15 145 -5 336 -17 424 -25 187 -17
1268 -20 1370 -3 33 5 335 12 670 15 502 4 647 2 816 -11 263 -20 1501 -23
1675 -4 151 17 823 17 1039 0 123 -10 315 -13 695 -10 480 4 536 6 650 26 317
54 466 71 680 76 118 3 337 13 485 21 149 8 398 15 555 15 l285 0 17 -137 c11
-82 29 -171 45 -218 l27 -80 1 -360 0 -360 -27 -57 c-15 -32 -66 -107 -115
-168 l-88 -110 -210 0 c-314 0 -408 -16 -659 -107 -106 -39 -417 -188 -465
-224 -16 -12 -42 -23 -58 -25 -15 -2 -68 -10 -117 -19 -158 -27 -445 -15 -606
26 -41 11 -120 40 -175 65 -279 128 -505 227 -579 251 -78 27 -89 28 -276 27
-247 0 -281 -8 -510 -121 -96 -47 -209 -98 -250 -113 -167 -61 -454 -195 -446
-209 3 -5 -16 -17 -42 -27 -64 -26 -71 -27 -42 -10 33 20 23 20 -68 -3 -173
-44 -439 -52 -556 -17 -26 8 -97 46 -159 84 -145 91 -269 153 -384 190 -147
49 -210 55 -514 50 -259 -5 -279 -6 -373 -32 -55 -15 -159 -36 -230 -47 -240
-36 -326 -62 -666 -199 -257 -104 -301 -117 -427 -131 -115 -12 -259 -2 -421
31 -140 29 -205 54 -312 125 -115 75 -415 249 -476 276 -92 41 -177 49 -527
49 -332 0 -369 -3 -612 -44 -49 -8 -146 -22 -214 -31 -87 -11 -157 -28 -240
-56 -123 -44 -223 -72 -496 -143 -93 -25 -205 -54 -247 -65 -42 -11 -114 -25
-160 -31 -67 -9 -100 -20 -168 -57 -47 -25 -105 -60 -130 -77 -39 -27 -42 -31
-23 -34 59 -9 663 141 925 229 80 27 177 54 215 59 37 6 167 27 288 47 213 35
230 36 550 40 473 7 474 7 785 -172 74 -43 180 -108 235 -144 170 -113 377
-165 660 -165 203 0 228 6 560 139 284 113 416 154 576 180 145 23 245 42 306
59 101 28 247 38 481 33 195 -4 238 -7 302 -26 162 -47 272 -99 453 -212 62
-38 135 -77 162 -85 68 -22 315 -30 428 -15 256 34 502 127 864 324 135 74
343 162 418 177 33 7 134 13 225 14 148 1 173 -1 240 -23 89 -28 296 -115 515
-218 236 -111 383 -143 666 -143 164 0 279 16 397 56 115 40 542 235 542 248
0 2 -10 2 -22 -1 -40 -10 -15 5 71 41 96 42 117 46 49 10 -27 -13 -48 -26 -48
-28 0 -2 37 7 83 21 105 31 319 47 527 40 275 -10 402 -45 730 -201 118 -57
234 -111 257 -121 l41 -17 79 34 c44 19 110 51 148 72 77 44 76 48 -13 83 -25
10 -134 61 -241 113 -108 53 -243 111 -301 130 l-105 34 32 33 c17 18 57 68
88 110 30 43 85 115 120 160 104 134 107 149 103 560 l-4 338 -31 105 c-48
158 -68 341 -41 368 9 9 -76 12 -383 10 -216 0 -443 -5 -504 -9z"/>
<path d="M2148 1904 c-5 -4 -24 -7 -43 -6 -38 2 -127 -24 -247 -69 -72 -28
-78 -33 -117 -92 -45 -69 -85 -161 -96 -219 -15 -78 41 -154 150 -205 54 -25
71 -28 165 -28 102 0 108 1 225 48 197 80 274 137 317 234 31 70 34 131 8 190
-42 100 -121 144 -265 151 -49 2 -93 1 -97 -4z m-81 -56 c-13 -18 -32 -47 -41
-65 -14 -29 -20 -31 -73 -35 -32 -2 -59 -3 -61 -2 -1 1 25 12 58 24 33 12 59
24 57 26 -2 2 -35 -5 -73 -16 -112 -32 -106 -23 26 44 69 35 127 62 129 61 1
-2 -8 -19 -22 -37z m31 -125 c50 -17 98 -75 108 -129 6 -30 -4 -91 -22 -137
-5 -13 4 -16 52 -19 l57 -3 -105 -46 -106 -47 46 44 c27 26 42 48 36 52 -5 5
-27 14 -50 20 -54 16 -103 50 -132 92 -27 40 -25 83 8 158 21 48 19 47 108 15z"/>
<path d="M3679 1905 c-3 -2 -29 -6 -59 -9 -59 -5 -241 -63 -292 -93 -54 -32
-144 -205 -155 -300 -15 -117 140 -223 324 -223 60 0 92 7 171 36 215 80 300
137 352 236 80 149 18 294 -146 344 -44 13 -185 20 -195 9z m-63 -23 c-3 -5
-21 -33 -41 -61 -19 -29 -35 -57 -35 -62 0 -4 19 -13 43 -20 98 -26 150 -85
150 -172 0 -29 -7 -69 -16 -89 l-16 -37 -52 15 c-93 28 -159 88 -159 145 0 14
9 52 20 84 11 32 20 60 20 63 0 2 -26 2 -57 0 l-58 -5 50 23 c58 27 51 30 -19
9 -93 -28 -80 -14 44 50 138 70 133 68 126 57z m169 -462 c-22 -10 -70 -31
-106 -48 l-66 -30 46 48 c45 47 48 48 106 48 l60 1 -40 -19z"/>
<path d="M5148 1904 c-5 -4 -24 -7 -44 -6 -35 1 -186 -42 -271 -79 -53 -23
-71 -42 -118 -131 -53 -99 -77 -176 -70 -220 9 -53 65 -112 143 -150 63 -31
72 -33 177 -32 109 0 111 0 234 52 199 83 270 140 311 249 33 90 22 164 -36
232 -48 56 -119 84 -229 89 -49 2 -93 1 -97 -4z m-70 -41 c-8 -10 -27 -39 -42
-65 -26 -45 -28 -46 -84 -50 -31 -2 -58 -3 -60 -2 -1 1 25 12 58 24 33 12 59
24 57 26 -2 2 -35 -5 -73 -16 -112 -32 -106 -23 26 44 69 35 127 62 129 60 2
-2 -3 -12 -11 -21z m32 -146 c94 -45 121 -139 75 -259 -6 -16 0 -18 51 -19
l59 0 -85 -40 c-133 -64 -140 -65 -87 -19 48 43 56 58 35 64 -106 31 -169 75
-188 132 -9 28 -8 44 6 87 32 98 37 100 134 54z"/>
<path d="M6625 1900 c-56 -8 -225 -61 -288 -90 -15 -8 -44 -38 -64 -69 -45
-66 -103 -205 -103 -244 0 -70 57 -138 155 -184 54 -25 71 -28 165 -28 104 0
107 1 235 53 72 29 155 69 185 90 188 128 196 355 17 446 -51 26 -71 30 -150
32 -51 2 -119 -1 -152 -6z m-11 -22 c-4 -7 -17 -26 -28 -43 -20 -29 -46 -74
-46 -80 0 -2 26 -11 57 -20 100 -29 156 -116 134 -208 -5 -23 -13 -52 -16 -64
-7 -21 -4 -22 51 -25 l57 -3 -105 -46 -106 -47 45 43 c44 42 49 65 15 65 -29
0 -116 46 -145 77 -38 41 -44 86 -18 153 12 30 21 59 21 64 0 5 -25 6 -55 4
-30 -3 -55 -3 -55 -2 0 2 27 13 60 25 33 12 59 23 57 25 -2 2 -35 -5 -73 -16
-112 -32 -106 -23 26 45 142 73 134 69 124 53z"/>
<path d="M8427 1904 c-3 -4 -25 -6 -48 -6 -42 1 -209 -49 -284 -84 -50 -24
-103 -100 -145 -206 -48 -124 -36 -189 48 -254 103 -79 261 -96 404 -44 139
52 261 115 308 162 151 151 108 365 -86 424 -47 14 -185 20 -197 8z m-81 -46
c-18 -25 -56 -95 -56 -102 0 -2 24 -11 53 -20 52 -15 102 -56 126 -103 14 -28
13 -109 -3 -153 -11 -30 -17 -35 -42 -32 -48 4 -137 55 -161 91 -28 42 -29 85
-3 153 11 29 20 55 20 57 0 2 -25 1 -55 -1 -64 -5 -61 2 12 27 76 27 58 29
-31 5 -43 -12 -79 -20 -81 -18 -5 4 215 118 228 118 5 0 2 -10 -7 -22z m214
-425 c-8 -4 -56 -25 -107 -49 l-92 -43 47 49 c46 48 48 49 107 49 33 -1 53 -3
45 -6z"/>
<path d="M10057 1903 c-4 -3 -23 -6 -42 -5 -38 2 -127 -24 -245 -69 -69 -26
-79 -34 -112 -84 -51 -77 -101 -202 -101 -251 -1 -124 162 -223 346 -211 65 4
104 13 187 46 192 77 272 134 320 230 92 183 -37 351 -269 351 -43 0 -81 -3
-84 -7z m-98 -85 l-40 -63 -57 -6 c-31 -3 -58 -5 -60 -4 -1 1 25 12 59 24 33
13 59 24 57 27 -3 2 -36 -5 -74 -16 -38 -11 -76 -20 -84 -20 -17 0 209 119
227 120 7 0 -6 -28 -28 -62z m63 -99 c92 -47 120 -146 73 -261 -6 -16 0 -18
51 -19 l59 0 -94 -45 c-51 -24 -96 -44 -99 -44 -3 0 11 18 32 39 38 39 41 61
8 61 -28 0 -115 45 -140 72 -34 37 -43 81 -28 131 30 94 32 97 68 90 18 -3 50
-14 70 -24z"/>
<path d="M11588 1904 c-5 -4 -24 -7 -43 -6 -38 2 -127 -24 -245 -69 -70 -27
-78 -33 -117 -91 -41 -62 -85 -159 -98 -217 -17 -77 42 -157 154 -210 50 -23
67 -26 166 -25 109 0 111 0 234 52 199 83 270 140 311 249 26 70 25 117 -4
178 -45 96 -120 136 -261 143 -49 2 -93 1 -97 -4z m-81 -56 c-13 -18 -32 -47
-41 -65 -14 -29 -20 -31 -73 -35 -32 -2 -59 -3 -61 -2 -1 1 25 12 58 24 33 12
59 24 57 26 -2 2 -35 -5 -73 -16 -112 -32 -106 -23 26 44 69 35 127 62 129 61
1 -2 -8 -19 -22 -37z m30 -124 c81 -29 126 -115 105 -202 -6 -26 -14 -55 -17
-64 -6 -16 0 -18 51 -19 l59 0 -85 -40 c-131 -63 -135 -63 -83 -14 27 27 43
49 37 53 -5 5 -27 14 -50 20 -50 15 -100 48 -128 85 -27 36 -26 95 3 160 23
53 20 52 108 21z"/>
</g>
</svg>
